<?xml version="1.0" standalone="no"?>
<?xml-stylesheet type="text/css" href="_sass/3-modules/_header.scss"?>

<svg width="204" height="218" xmlns="http://www.w3.org/2000/svg" x="0px" y="0px" viewBox="0 0 204 218">
<path id="logo_svg" d="M101.9,0L0,54.2v109.6L101.9,218l101.9-54.2V54.2L101.9,0z M94,95.4L40,66.8h54V95.4z M110,66.8h53.9l-53.9,28.7L110,66.8z
	 M85,108.8l-27.2,14.4L30.7,79.9L85,108.8z M94,122.1v58.8l-27.7-44.1L94,122.1z M110,122.1l27.6,14.7L110,180.9V122.1z M119,108.8
	l54.3-28.9l-27.1,43.3L119,108.8z M110,50.8V22.4l53.4,28.4L110,50.8z M94,50.8H40.5L94,22.4V50.8z M43.6,130.7L16,145.4V86.6
	L43.6,130.7z M52.2,144.3L79.5,188l-54.7-29.1L52.2,144.3z M151.7,144.3l27.4,14.6L124.4,188L151.7,144.3z M160.2,130.7l27.6-44.1
	v58.8L160.2,130.7z"/>
</svg>